<?xml version="1.0" encoding="utf-8"?>
<!-- Generator: Adobe Illustrator 22.1.0, SVG Export Plug-In . SVG Version: 6.00 Build 0)  -->
<svg version="1.1" id="Calque_1" xmlns="http://www.w3.org/2000/svg" xmlns:xlink="http://www.w3.org/1999/xlink" x="0px" y="0px"
	 viewBox="0 0 298.7 23.2" style="enable-background:new 0 0 298.7 23.2;" xml:space="preserve">
<title>Sans titre - 1</title>
<title>Sans titre - 1</title>
<path d="M16.2,8.6c0,1.1-0.3,1.6-1.3,1.6H7.2v-7H15c0.9,0,1.3,0.5,1.3,1.5V8.6z M23.8,23.2c-1-1-1.4-1.9-1.8-3l-2.8-7.1
	c2.4-0.3,3.6-1.6,3.6-3.8V4.5c0-2.5-1.4-4.3-4.5-4.3H0C0.2,1,0.4,1.7,0.4,3.1v17.1c0,1.4-0.2,2.2-0.4,3h7.6c-0.2-0.8-0.4-1.5-0.4-3
	v-7.2h5l4,10.2H23.8z"/>
<path d="M27.4,23.2c0.2-0.8,0.4-1.5,0.4-3V3.1c0-1.4-0.2-2.2-0.4-3H35c-0.2,0.8-0.4,1.5-0.4,3v17.1c0,1.4,0.2,2.2,0.4,3H27.4z"/>
<path d="M57.7,23.2H44.2c-3.1,0-4.5-1.7-4.5-4.5v-14c0-2.8,1.4-4.5,4.5-4.5h13.5l0.6,3.5c-0.9-0.4-1.8-0.5-3.3-0.5h-7.3
	c-0.8,0-1.2,0.3-1.2,1.2v14.7c0,0.9,0.5,1.2,1.2,1.2H55c1.4,0,2.4-0.2,3.3-0.5L57.7,23.2z"/>
<path d="M78.2,23.2c0.2-0.8,0.4-1.5,0.4-3v-7.2h-9.1v7.2c0,1.4,0.2,2.2,0.4,3h-7.6c0.2-0.8,0.4-1.5,0.4-3V3.1c0-1.4-0.2-2.2-0.4-3
	h7.6c-0.2,0.8-0.4,1.5-0.4,3v7h9.1v-7c0-1.4-0.2-2.2-0.4-3h7.6c-0.2,0.8-0.4,1.5-0.4,3v17.1c0,1.4,0.2,2.2,0.4,3H78.2z"/>
<path d="M104.8,13.7H97l3.9-8.7L104.8,13.7z M116.8,23.2c-0.6-0.6-1.3-1.9-1.8-3l-9.1-20.1h-7.5l1,1.5l-8.4,18.6
	c-0.4,0.8-1.1,2-1.8,3h4.4c0-1.1,0.3-2.3,0.5-3l1.5-3.6h10.5l1.6,3.6c0.4,0.9,0.6,1.8,0.6,2.4c0,0.2,0,0.4-0.1,0.6H116.8z"/>
<path d="M136.4,8.6c0,1.1-0.3,1.6-1.3,1.6h-7.8v-7h7.8c0.9,0,1.3,0.5,1.3,1.5V8.6z M144,23.2c-1-1-1.4-1.9-1.8-3l-2.8-7.1
	c2.4-0.3,3.6-1.6,3.6-3.8V4.5c0-2.5-1.4-4.3-4.5-4.3h-18.3c0.2,0.8,0.4,1.5,0.4,2.9v17.1c0,1.4-0.2,2.2-0.4,3h7.6
	c-0.2-0.8-0.4-1.5-0.4-3v-7.2h5l4,10.2H144z"/>
<path d="M164.1,19.1c0,0.9-0.5,1.2-1.2,1.2h-8.1V3.1l8.1,0c0.8,0,1.2,0.3,1.2,1.2V19.1z M170.8,18.7v-14c0-2.8-1.4-4.5-4.5-4.5
	h-18.7c0.2,0.8,0.4,1.5,0.4,2.9v17.2c0,1.4-0.2,2.1-0.4,2.9h18.7C169.4,23.2,170.8,21.5,170.8,18.7z"/>
<g transform="translate(184,-0.2064989)">
	<path d="M23.7,23.3c0.2-0.8,0.4-1.5,0.4-3V3.5h-0.1l-7.9,19.7h-4.7L3.8,3.5H3.7v16.8c0,1.4,0.2,2.2,0.4,3h-4c0.2-0.8,0.4-1.5,0.4-3
		V3.2c0-1.4-0.2-2.2-0.4-3h9.1l6.6,16.7l6.7-16.7h8.6c-0.2,0.8-0.4,1.5-0.4,3v17.1c0,1.4,0.2,2.2,0.4,3L23.7,23.3L23.7,23.3z"/>
	<path d="M36.6,23.3c0.2-0.8,0.4-1.5,0.4-3V3.2c0-1.4-0.2-2.2-0.4-3h7.6c-0.2,0.8-0.4,1.5-0.4,3v17.1c0,1.4,0.2,2.2,0.4,3H36.6z"/>
	<path d="M68.5,23.3H49.6c0.2-0.8,0.4-1.5,0.4-2.9V3.2c0-1.4-0.2-2.2-0.4-3h7.6c-0.2,0.8-0.4,1.5-0.4,3v17.2h8.9
		c1.5,0,2.5-0.2,3.4-0.5L68.5,23.3z"/>
	<path d="M91.3,23.3H72.5c0.2-0.8,0.4-1.5,0.4-2.9V3.2c0-1.4-0.2-2.2-0.4-3h7.6c-0.2,0.8-0.4,1.5-0.4,3v17.2h8.9
		c1.5,0,2.5-0.2,3.4-0.5L91.3,23.3z"/>
	<path d="M114.2,23.3H95.3c0.2-0.8,0.4-1.5,0.4-2.9V3.1c0-1.4-0.2-2.1-0.4-2.9h18.9l0.6,3.5c-0.9-0.3-1.8-0.5-3.4-0.5h-8.9v7h8
		c1.3,0,2.4-0.2,3.2-0.5v4c-0.8-0.3-1.9-0.5-3.2-0.5h-8v7.2h8.9c1.5,0,2.5-0.2,3.4-0.5L114.2,23.3z"/>
</g>
</svg>
